<?xml version="1.0" encoding="utf-8"?>
<!-- Generator: Adobe Illustrator 27.9.0, SVG Export Plug-In . SVG Version: 6.00 Build 0)  -->
<svg version="1.1" id="Calque_1" xmlns="http://www.w3.org/2000/svg" xmlns:xlink="http://www.w3.org/1999/xlink" x="0px" y="0px"
	 viewBox="0 0 595.28 595.28" style="enable-background:new 0 0 595.28 595.28;" xml:space="preserve">
<style type="text/css">
	.st0{fill:#FFFFFF;}
	.st1{fill:none;stroke:#000000;stroke-width:4;stroke-miterlimit:10;}
</style>
<path class="st0" d="M68.21,339.96c-105.67-32.86-47.8-215.71,62.44-193.06c0,0,79.57-71.73,150.96-0.35
	c0,0,82.98-20.38,103.01,51.98c0,0,27.58-14.49,48.96,0c0,0,39.71-55.4,101.34-25.34c69.29,33.8,31.26,97.34,31.26,97.34
	s35.22,33.54,0,69.43c0,0,16.5,51.78-40.26,72.57c-53.83,19.71-80.51-14.03-80.51-14.03s-31.37,45.4-85.5,18.29
	c0,0-36.48,68.51-122.04,32.02c0,0-56.83,61.64-124.94,12.58c0,0-30.88-23.57-15.79-69.65C97.15,391.74,59.41,380.89,68.21,339.96"
	/>
<path d="M124.74,271.63c-6.58,0.44-13.17,0.74-19.69,1.58c-11.53,1.47-1.33,29.47-14.38,31.13c-2.17,0.28-7.5-0.78-7.95-4.32
	l-1.12-8.78c0,0,4.91-36.98,7.37-52.34c1.49-10.84,5.45-31.86,17.08-33.34c10.11-1.29,19.4,13.51,22.91,23.72
	c1.21,3.44,12.39,33.98,13.6,37.42c0.98,1.61,6.45,15.96,7.45,17.7c0.1,0.79,1.09,3.33,1.2,4.24c0.78,6.16-2.47,9.24-6.82,9.79
	c-9.46,1.2-14.86-18.62-17.15-24.45L124.74,271.63z M109.05,253.39c1.63-0.21,3.23-0.68,4.42-0.83c1.52-0.19,5.11-0.65,4.68-4.06
	c-0.33-2.62-5.17-17.19-8.76-16.73c-3.59,0.46-5.5,14.95-5.05,18.49C104.74,253.4,106.87,253.66,109.05,253.39z"/>
<path d="M161.97,250.21c6.52-0.83,11.54,3.86,19.59,2.83c0.65-0.08,5-0.64,5.76-0.73c2.18-0.28,4.02-3.17,3.68-5.79
	c-1.43-11.27-35.81-9.56-39.59-39.31c-2.22-17.43,9.71-27.87,23.41-29.61c7.29-0.93,22.08-0.15,23.63,12.04
	c0.67,5.24-2.47,9.24-6.82,9.79c-4.35,0.55-9.25-3.22-14.36-2.57c-3.59,0.46-10.77,2.17-9.99,8.33
	c2.22,17.43,36.03,10.46,40.03,41.91c2.12,16.64-11.67,24.66-23.96,26.22c-7.94,1.01-25.79-0.31-27.46-13.42
	C155.25,254.66,157.62,250.77,161.97,250.21z"/>
<path d="M227.08,272.43c6.52-0.83,11.54,3.86,19.59,2.83c0.65-0.08,5-0.64,5.76-0.73c2.18-0.28,4.02-3.17,3.68-5.79
	c-1.43-11.27-35.81-9.56-39.59-39.31c-2.22-17.43,9.71-27.87,23.41-29.61c7.29-0.93,22.08-0.15,23.63,12.04
	c0.67,5.24-2.47,9.24-6.82,9.79c-4.35,0.55-9.25-3.22-14.36-2.57c-3.59,0.46-10.77,2.17-9.99,8.33
	c2.22,17.43,36.03,10.46,40.03,41.91c2.12,16.64-11.67,24.66-23.96,26.22c-7.94,1.01-25.79-0.31-27.46-13.42
	C220.35,276.88,222.73,272.99,227.08,272.43z"/>
<path d="M305.15,171.63c18.16-2.31,32.92,20.71,35.37,39.98c3.22,25.29-9.76,50.91-31.51,53.68c-18.81,2.39-32.14-15.49-34.81-36.45
	C271.19,205.25,284.16,174.3,305.15,171.63z M305.79,246.12c13.81-1.76,19.86-17.58,17.98-32.38c-0.12-0.92-0.78-6.16-0.9-7.08
	c-2.51-8.47-9.06-13.89-16.35-12.97c-11.64,1.48-17.36,19.92-15.79,32.24C291.95,235.49,296.44,247.31,305.79,246.12z"/>
<path d="M159.97,374.26c6.47-1.17,11.73,3.24,19.71,1.79c0.65-0.12,4.96-0.9,5.72-1.04c2.16-0.39,3.84-3.38,3.37-5.98
	c-2.03-11.18-36.26-7.66-41.61-37.16c-3.14-17.29,8.23-28.34,21.82-30.81c7.23-1.31,22.04-1.31,24.24,10.78
	c0.94,5.2-1.98,9.35-6.29,10.14c-4.31,0.78-9.41-2.72-14.48-1.8c-3.56,0.65-10.64,2.74-9.54,8.85c3.14,17.29,36.53,8.54,42.19,39.74
	c2.99,16.51-10.35,25.24-22.54,27.45c-7.87,1.43-25.77,1.05-28.13-11.95C153.48,379.06,155.65,375.04,159.97,374.26z"/>
<path d="M252.19,367.39l-18.66,3.38c-0.76,0.14-2.44,3.13-2.3,3.91l5.19,28.6c0.8,4.42-3.21,6.89-6.01,7.4
	c-9.38,1.7-12.38-14.81-13.79-22.6c-2.03-11.18-13.66-67.34-0.07-69.8c4.31-0.78,8.93,3.75,9.87,8.95
	c1.11,6.11,0.71,12.49,1.96,19.38c0.31,1.69,0.78,4.29,2.94,3.9l20.17-3.66c5.07-0.92-7.37-32.63,6.22-35.1
	c5.07-0.92,8.01,2.98,9.11,9.09c2.83,15.6,3.5,31.59,6.17,46.28c0.47,2.6,2.52,13.91,2.99,16.51c1.39,3.37,1.7,5.06,2.33,8.57
	c0.94,5.2-1.03,10.93-5.34,11.71c-7.23,1.31-10.21-7.14-12.07-13.12c-0.61-3.38-4.7-17.94-5.32-21.32
	C254.65,368.69,252.95,367.26,252.19,367.39z"/>
<path d="M328.44,355.47c-6.54,0.78-13.11,1.44-19.58,2.61c-11.43,2.07,0.23,29.5-12.72,31.84c-2.16,0.39-7.53-0.38-8.17-3.89
	l-1.58-8.71c0,0,2.95-37.19,4.6-52.66c0.92-10.91,3.76-32.1,15.3-34.19c10.03-1.82,20.09,12.47,24.13,22.48
	c1.39,3.37,14.17,33.28,15.56,36.65c1.06,1.55,7.28,15.59,8.37,17.28c0.14,0.78,1.26,3.26,1.43,4.17c1.11,6.11-1.98,9.35-6.29,10.14
	c-9.38,1.7-15.82-17.81-18.41-23.51L328.44,355.47z M311.81,338.09c1.62-0.29,3.19-0.85,4.37-1.06c1.51-0.27,5.07-0.92,4.46-4.3
	c-0.47-2.6-6.07-16.89-9.63-16.25c-3.56,0.65-4.7,15.22-4.07,18.73C307.5,338.33,309.65,338.48,311.81,338.09z"/>
<path d="M355.6,328.55c-3.44-18.98-4.39-24.18-7.51-45.09c-3.18-21.84,5.28-24.32,21.79-27.31c13.7-2.48,25.31,4.41,28.44,21.69
	c3.16,17.42-7.46,36.26-6.66,40.68c1.08,5.98,13.72,1.94,15.61,12.34c0.94,5.2-2.9,8.58-6.57,9.25c-7.87,1.43-16.21-3.37-24.08-1.94
	c-0.75,0.14-2.16,0.39-1.99,1.3c0.35,6.25,0.37,14.3-6.11,15.47c-4.32,0.78-7.7-1.29-9.29-6.37
	C358.75,345.97,356.23,332.06,355.6,328.55z M371.76,311.39c8.63-1.57,11.8-20.94,10.22-29.64c0,0-0.64-3.51-0.78-4.29
	c-2.04-3.26-4.95-2.73-7.86-2.2c-2.81,0.51-8.04,0.52-8.64,5.19c0.49,7.03,1.44,12.22,2.69,19.11c0.33,1.82,1.58,8.71,1.89,10.4
	C370.35,311.64,371,311.52,371.76,311.39z"/>
<path d="M416.29,310.29c-1.6-13.14-7.25-36.28,8.5-39.13c3.67-0.67,26.17-7.43,28.53,5.57c1.53,8.45-5.22,11.15-11.47,12.28
	c-3.34,0.61-6.65,0.8-8.38,1.12c-4.01,2.47-1.84,10.14-0.9,15.33c2.05,11.31,15.91-1.95,18.44,11.96c1.72,9.49-6.91,11.05-12.46,13
	c0,0-2.44,3.13-2.13,4.82l2.19,12.09c0.16,0.91,2.63,2.21,3.38,2.07c0.76-0.14,4.31-0.78,5.07-0.92c4.31-0.78,7.57-3.12,12.64-4.04
	c4.31-0.78,7.9,3,8.7,7.42c2.19,12.09-10.75,14.44-17.87,15.73c-13.7,2.48-25.59-1.67-28.73-18.96
	C419.44,335.63,418.31,325.1,416.29,310.29z"/>
<g>
	<path d="M498.34,287.64c0.14,3.49-0.76,6-2.7,7.53c-1.94,1.53-4.28,2.35-7,2.46c-1.28,0.05-2.56-0.11-3.86-0.48
		c-1.29-0.37-2.49-0.92-3.59-1.65c-1.1-0.72-2.03-1.58-2.79-2.57c-0.77-0.99-1.22-2.08-1.35-3.27c-0.24-1.61-0.46-3.95-0.67-7.01
		c-0.21-3.06-0.44-6.51-0.68-10.34c-0.04-0.94-0.1-1.92-0.18-2.94s-0.15-2.08-0.19-3.19c-0.52-8.6-1.02-16.13-1.49-22.59
		c-0.48-6.46-1.16-12.24-2.05-17.32c-0.33-1.86-0.23-3.53,0.31-5c0.54-1.47,1.36-2.74,2.47-3.81c1.11-1.07,2.38-1.89,3.8-2.46
		c1.43-0.57,2.86-0.88,4.31-0.94c1.28-0.05,2.54,0.09,3.79,0.42c1.25,0.33,2.4,0.86,3.46,1.59s1.92,1.67,2.61,2.84
		s1.11,2.56,1.26,4.17L498.34,287.64z M479.39,318.74c-1.35-1.82-1.94-3.7-1.76-5.62c0.18-1.93,0.83-3.7,1.96-5.33
		s2.63-2.99,4.5-4.09c1.87-1.1,3.79-1.69,5.75-1.77c1.96-0.08,3.81,0.34,5.55,1.25s3.17,2.37,4.27,4.37
		c0.37,0.75,0.68,1.59,0.93,2.52c0.25,0.93,0.39,1.73,0.42,2.41c0.13,3.24-0.96,5.86-3.26,7.88c-2.31,2.01-5.04,3.08-8.19,3.21
		c-1.87,0.08-3.77-0.32-5.68-1.18s-3.68-2.32-5.3-4.39L479.39,318.74z"/>
</g>
<path class="st1" d="M436.67,469.5"/>
</svg>
